HIERARCHY
ROOT joint_Root
{
	OFFSET 0.0 0.0 0.0
	CHANNELS 6 Xposition Yposition Zposition Zrotation Xrotation Yrotation 
	JOINT Hips
	{
		OFFSET 4.5925 91.4895 -427.239
		CHANNELS 6 Xposition Yposition Zposition Zrotation Xrotation Yrotation 
		JOINT Spine
		{
			OFFSET 15.7357 0.0 0.0
			CHANNELS 6 Xposition Yposition Zposition Zrotation Xrotation Yrotation 
			JOINT Chest
			{
				OFFSET 8.98455 -0.406207 0.0
				CHANNELS 6 Xposition Yposition Zposition Zrotation Xrotation Yrotation 
				JOINT Neck
				{
					OFFSET 16.3773 0.0 0.0
					CHANNELS 6 Xposition Yposition Zposition Zrotation Xrotation Yrotation 
					JOINT Head
					{
						OFFSET 6.45672 0.0 0.0
						CHANNELS 6 Xposition Yposition Zposition Zrotation Xrotation Yrotation 
						End Site
						{
							OFFSET 0.0 0.0 0.0
						}
					}
				}
				JOINT Shoulder_L
				{
					OFFSET 12.9942 -0.242716 4.98039
					CHANNELS 6 Xposition Yposition Zposition Zrotation Xrotation Yrotation 
					JOINT UpperArm_L
					{
						OFFSET 5.34809 0.0 0.0
						CHANNELS 6 Xposition Yposition Zposition Zrotation Xrotation Yrotation 
						JOINT LowerArm_L
						{
							OFFSET 24.3286 1.87007e-05 0.0
							CHANNELS 6 Xposition Yposition Zposition Zrotation Xrotation Yrotation 
							JOINT Hand_L
							{
								OFFSET 22.2916 0.0 0.0
								CHANNELS 6 Xposition Yposition Zposition Zrotation Xrotation Yrotation 
								End Site
								{
									OFFSET 0.0 0.0 0.0
								}
							}
						}
					}
				}
				JOINT Shoulder_R
				{
					OFFSET 12.9945 -0.242716 -4.98039
					CHANNELS 6 Xposition Yposition Zposition Zrotation Xrotation Yrotation 
					JOINT UpperArm_R
					{
						OFFSET -5.34813 0.0 0.0
						CHANNELS 6 Xposition Yposition Zposition Zrotation Xrotation Yrotation 
						JOINT LowerArm_R
						{
							OFFSET -24.3289 0.000322201 0.0
							CHANNELS 6 Xposition Yposition Zposition Zrotation Xrotation Yrotation 
							JOINT Hand_R
							{
								OFFSET -22.2915 -0.000108084 0.0
								CHANNELS 6 Xposition Yposition Zposition Zrotation Xrotation Yrotation 
								End Site
								{
									OFFSET 0.0 0.0 0.0
								}
							}
						}
					}
				}
			}
		}
		JOINT UpperLeg_L
		{
			OFFSET -2.19248 -6.46944 0.0
			CHANNELS 6 Xposition Yposition Zposition Zrotation Xrotation Yrotation 
			JOINT LowerLeg_L
			{
				OFFSET 39.0811 0.0 -1.23785e-05
				CHANNELS 6 Xposition Yposition Zposition Zrotation Xrotation Yrotation 
				JOINT Foot_L
				{
					OFFSET 40.9854 0.0 -1.26872e-05
					CHANNELS 6 Xposition Yposition Zposition Zrotation Xrotation Yrotation 
					JOINT Toes_L
					{
						OFFSET 11.7543 0.0 0.0
						CHANNELS 6 Xposition Yposition Zposition Zrotation Xrotation Yrotation 
						End Site
						{
							OFFSET 0.0 0.0 0.0
						}
					}
				}
			}
		}
		JOINT UpperLeg_R
		{
			OFFSET -2.19251 6.46944 0.0
			CHANNELS 6 Xposition Yposition Zposition Zrotation Xrotation Yrotation 
			JOINT LowerLeg_R
			{
				OFFSET -39.0811 -0.00228153 -0.0401928
				CHANNELS 6 Xposition Yposition Zposition Zrotation Xrotation Yrotation 
				JOINT Foot_R
				{
					OFFSET -40.9854 0.0 0.0
					CHANNELS 6 Xposition Yposition Zposition Zrotation Xrotation Yrotation 
					JOINT Toes_R
					{
						OFFSET -11.7543 0.0 0.0
						CHANNELS 6 Xposition Yposition Zposition Zrotation Xrotation Yrotation 
						End Site
						{
							OFFSET 0.0 0.0 0.0
						}
					}
				}
			}
		}
	}
}
MOTION
Frames:	9
Frame Time:	0.0333333
0.000000 0.000000 0.000000 0.000000 0.000000 -0.000000 3.560050 84.490400 -21.523700 93.524800 -3.086250 -11.187100 15.735700 0.000005 -0.000001 97.720000 84.843800 -100.260000 8.984550 -0.406207 -0.000000 2.491900 1.500900 -5.106890 16.377300 -0.000001 -0.000001 -2.131990 -2.918650 1.951940 6.456720 -0.000001 -0.000000 -2.441130 -3.699110 4.859430 12.994200 -0.242716 4.980390 -92.215000 7.035400 -72.471700 5.348090 -0.000007 -0.000001 -60.957100 4.668980 0.680493 24.328600 0.000019 0.000005 11.033800 2.014830 -79.767400 22.291600 -0.000001 0.000005 -0.026836 5.455410 -4.837330 12.994500 -0.242716 -4.980390 88.168600 10.740200 -80.263600 -5.348130 -0.000001 -0.000004 -63.249800 27.786300 -6.988300 -24.328900 0.000322 -0.000009 -14.210600 -8.159770 -60.760600 -22.291500 -0.000108 -0.000004 12.566300 5.522270 -7.460740 -2.192480 -6.469440 -0.000000 171.449000 -5.237110 -44.439300 39.081100 -0.000007 -0.000012 -0.554468 0.407556 53.683900 40.985400 -0.000006 -0.000013 2.260080 -7.759510 -71.418000 11.754300 -0.000000 0.000003 -0.000004 -0.000060 -16.579900 -2.192510 6.469440 -0.000001 168.622000 8.045040 163.587000 -39.081100 -0.002282 -0.040193 0.959764 0.585999 121.497000 -40.985400 0.000008 0.000006 -4.789680 3.001330 1.172730 -11.754300 -0.000006 -0.000006 -0.010212 -0.105212 -20.860000
0.000000 0.000000 0.000000 0.000000 0.000000 -0.000000 4.381550 82.327800 -11.695500 96.763300 0.322827 -9.419880 15.735700 0.000005 -0.000001 83.981800 83.848700 -87.346900 8.984550 -0.406207 -0.000000 4.443420 -1.190360 -6.676470 16.377300 -0.000001 -0.000001 -3.095540 -3.641210 1.456080 6.456720 -0.000001 -0.000000 -2.890930 -3.907400 6.164280 12.994200 -0.242716 4.980390 -91.448000 5.380870 -74.936500 5.348090 -0.000007 -0.000001 -65.698500 8.587300 -18.219700 24.328600 0.000019 0.000005 17.313700 1.125060 -86.384300 22.291600 -0.000001 0.000005 -1.761970 5.480470 -5.767440 12.994500 -0.242716 -4.980390 88.270200 9.467530 -79.596200 -5.348130 -0.000001 -0.000004 -65.539000 23.678300 4.141280 -24.328900 0.000322 -0.000009 -7.188190 -8.251070 -41.212200 -22.291500 -0.000108 -0.000004 12.592600 5.519690 -7.368580 -2.192480 -6.469440 -0.000000 168.353000 -4.634640 -37.444600 39.081100 -0.000007 -0.000012 -0.918731 0.537132 59.690200 40.985400 -0.000006 -0.000013 2.651470 -5.889470 -82.254700 11.754300 -0.000000 0.000003 -0.000018 -0.000235 -16.586800 -2.192510 6.469440 -0.000001 167.059000 6.620150 147.520000 -39.081100 -0.002282 -0.040193 0.522213 0.522509 135.203000 -40.985400 0.000008 0.000006 -6.436060 3.324940 10.424700 -11.754300 -0.000006 -0.000006 -0.010575 -0.107883 -20.969300
0.000000 0.000000 0.000000 0.000000 0.000000 -0.000000 4.222620 81.899000 -0.484361 95.471000 2.691850 -7.186890 15.735700 0.000005 -0.000001 74.094400 82.586900 -76.674900 8.984550 -0.406207 -0.000000 6.419120 -4.020670 -4.931080 16.377300 -0.000001 -0.000001 -3.689500 -2.974580 0.430407 6.456720 -0.000001 -0.000000 -3.068880 -2.211980 5.413560 12.994200 -0.242716 4.980390 -90.065300 0.291932 -77.514500 5.348090 -0.000007 -0.000001 -67.843100 11.455000 -31.172500 24.328600 0.000019 0.000005 13.482400 -1.584680 -96.631300 22.291600 -0.000001 0.000005 -0.775636 5.463710 -5.147940 12.994500 -0.242716 -4.980390 88.113200 8.774940 -77.812800 -5.348130 -0.000001 -0.000004 -63.361100 28.396300 15.384100 -24.328900 0.000322 -0.000009 -4.017950 -4.759940 -40.216200 -22.291500 -0.000108 -0.000004 7.195390 5.526110 -7.636970 -2.192480 -6.469440 -0.000000 171.647000 -6.006430 -24.648300 39.081100 -0.000007 -0.000012 -0.984355 0.626506 57.528000 40.985400 -0.000006 -0.000013 2.280900 -3.001760 -90.358100 11.754300 -0.000000 0.000003 -0.000013 -0.000176 -16.584500 -2.192510 6.469440 -0.000001 170.046000 4.490940 136.164000 -39.081100 -0.002282 -0.040193 0.104973 0.114048 138.316000 -40.985400 0.000008 0.000006 -7.833830 5.619150 8.466720 -11.754300 -0.000006 -0.000006 -0.011678 -0.115779 -21.292500
0.000000 0.000000 0.000000 0.000000 0.000000 -0.000000 3.231170 84.012100 11.796700 90.991200 7.329520 -7.586180 15.735700 0.000005 -0.000001 57.497300 81.670000 -57.838200 8.984550 -0.406207 -0.000000 6.316910 -8.921820 -0.188856 16.377300 -0.000001 -0.000001 -3.356330 -2.168290 -0.333519 6.456720 -0.000001 -0.000000 -3.292990 0.988726 3.840560 12.994200 -0.242716 4.980390 -89.338500 -3.099720 -77.945900 5.348090 -0.000007 -0.000001 -65.201100 11.116200 -38.450900 24.328600 0.000019 0.000005 7.766970 -2.451450 -107.436000 22.291600 -0.000001 0.000005 0.247818 5.447180 -4.538760 12.994500 -0.242716 -4.980390 88.073900 6.996240 -74.554500 -5.348130 -0.000001 -0.000004 -62.299000 35.507500 24.290800 -24.328900 0.000322 -0.000009 -8.111120 -7.833280 -46.267700 -22.291500 -0.000108 -0.000004 4.505000 5.539710 -8.240560 -2.192480 -6.469440 -0.000000 179.233000 -5.110690 -11.359300 39.081100 -0.000007 -0.000012 0.110530 -0.105065 46.451200 40.985400 -0.000006 -0.000013 6.221200 -0.182160 -87.229800 11.754300 -0.000000 0.000003 -0.810336 -0.941954 -22.318600 -2.192510 6.469440 -0.000001 178.445000 7.071300 129.557000 -39.081100 -0.002282 -0.040193 0.053049 0.042958 130.886000 -40.985400 0.000008 0.000006 -2.655420 4.442700 -5.462480 -11.754300 -0.000006 -0.000006 -0.010714 -0.108895 -21.010700
0.000000 0.000000 0.000000 0.000000 0.000000 -0.000000 2.250480 88.187500 24.170700 86.970200 12.153600 -11.069900 15.735700 0.000005 -0.000001 41.533500 81.246100 -39.424200 8.984550 -0.406207 -0.000000 4.180650 -13.152800 4.710310 16.377300 -0.000001 -0.000001 -2.625130 -2.124710 -0.500172 6.456720 -0.000001 -0.000000 -2.969150 3.374520 2.392300 12.994200 -0.242716 4.980390 -88.785100 -5.564830 -77.666100 5.348090 -0.000007 -0.000001 -63.857400 11.389200 -40.496400 24.328600 0.000019 0.000005 6.187740 -2.959470 -115.469000 22.291600 -0.000001 0.000005 -1.605350 5.434380 -4.085260 12.994500 -0.242716 -4.980390 88.857000 3.534500 -72.051600 -5.348130 -0.000001 -0.000004 -63.033100 34.711400 31.397600 -24.328900 0.000322 -0.000009 -8.598440 -6.903000 -51.515700 -22.291500 -0.000108 -0.000004 3.027670 5.553080 -8.854900 -2.192480 -6.469440 -0.000000 -172.883000 -4.316600 -4.848770 39.081100 -0.000007 -0.000012 0.016906 -0.024173 34.966100 40.985400 -0.000006 -0.000013 3.606560 5.809040 -67.478100 11.754300 -0.000000 0.000003 -0.158720 -0.571683 -40.811000 -2.192510 6.469440 -0.000001 -173.844000 8.548330 123.550000 -39.081100 -0.002282 -0.040193 0.123433 0.060338 116.709000 -40.985400 0.000008 0.000006 4.306540 1.217450 -26.127000 -11.754300 -0.000006 -0.000006 -0.009075 -0.096588 -20.507400
0.000000 0.000000 0.000000 0.000000 0.000000 -0.000000 1.721970 92.578300 36.375800 87.196400 12.995500 -12.690600 15.735700 0.000005 -0.000001 35.647300 80.953300 -32.855600 8.984550 -0.406207 -0.000000 3.242310 -14.798700 6.022970 16.377300 -0.000001 -0.000001 -2.246090 -1.879230 -0.662539 6.456720 -0.000001 -0.000000 -3.166330 4.664430 1.666950 12.994200 -0.242716 4.980390 -88.419700 -6.616960 -76.535800 5.348090 -0.000007 -0.000001 -62.580300 13.655400 -40.972900 24.328600 0.000019 0.000005 5.894450 -3.425450 -120.059000 22.291600 -0.000001 0.000005 -3.303530 5.428190 -3.875890 12.994500 -0.242716 -4.980390 89.925000 0.213913 -70.565600 -5.348130 -0.000001 -0.000004 -64.220400 30.553900 37.321100 -24.328900 0.000322 -0.000009 -10.077200 -6.659070 -56.870200 -22.291500 -0.000108 -0.000004 3.266760 5.568380 -9.600630 -2.192480 -6.469440 -0.000000 -168.430000 -13.246600 1.978500 39.081100 -0.000007 -0.000012 0.032781 -0.076502 23.195300 40.985400 -0.000006 -0.000013 -2.093300 14.036100 -38.373300 11.754300 -0.000000 0.000003 -0.136331 -0.527015 -38.785200 -2.192510 6.469440 -0.000001 -173.407000 7.796950 122.804000 -39.081100 -0.002282 -0.040193 0.186609 0.026403 98.224300 -40.985400 0.000008 0.000006 6.369540 -4.391390 -43.099100 -11.754300 -0.000006 -0.000006 -0.009940 -0.103189 -20.777300
0.000000 0.000000 0.000000 0.000000 0.000000 -0.000000 1.605390 95.675400 48.331000 88.009400 12.184100 -12.765400 15.735700 0.000005 -0.000001 35.447100 80.819800 -32.498300 8.984550 -0.406207 -0.000000 3.380140 -15.054600 6.364660 16.377300 -0.000001 -0.000001 -2.178020 -1.660490 -0.294217 6.456720 -0.000001 -0.000000 -3.340350 5.708700 0.726275 12.994200 -0.242716 4.980390 -88.162200 -7.310330 -75.847000 5.348090 -0.000007 -0.000001 -61.137900 15.950400 -40.687200 24.328600 0.000019 0.000005 5.721120 -3.684290 -122.677000 22.291600 -0.000001 0.000005 -3.460980 5.422770 -3.692400 12.994500 -0.242716 -4.980390 91.272900 -3.467410 -69.828600 -5.348130 -0.000001 -0.000004 -66.611000 26.078600 41.976500 -24.328900 0.000322 -0.000009 -10.382700 -5.527240 -62.269800 -22.291500 -0.000108 -0.000004 4.961860 5.584460 -10.451700 -2.192480 -6.469440 -0.000000 -164.334000 -19.520800 9.741080 39.081100 -0.000007 -0.000012 0.064904 -0.211912 17.028800 40.985400 -0.000006 -0.000013 -9.056760 10.770300 -25.487700 11.754300 -0.000000 0.000003 -0.002333 -0.032820 -17.911400 -2.192510 6.469440 -0.000001 -174.445000 8.081800 126.064000 -39.081100 -0.002282 -0.040193 0.164434 -0.039023 76.411100 -40.985400 0.000008 0.000006 6.677910 -5.258810 -53.272700 -11.754300 -0.000006 -0.000006 -0.011002 -0.110976 -21.095900
0.000000 0.000000 0.000000 0.000000 0.000000 -0.000000 1.616640 97.309300 59.909400 89.388800 12.589400 -12.794000 15.735700 0.000005 -0.000001 33.526200 80.489400 -30.786800 8.984550 -0.406207 -0.000000 3.239710 -15.949400 5.954600 16.377300 -0.000001 -0.000001 -2.147570 -1.565330 0.401244 6.456720 -0.000001 -0.000000 -3.078430 6.119210 0.746881 12.994200 -0.242716 4.980390 -88.043600 -7.781860 -75.841200 5.348090 -0.000007 -0.000001 -60.070900 18.587800 -38.616800 24.328600 0.000019 0.000005 6.236530 -4.215310 -123.926000 22.291600 -0.000001 0.000005 -3.075560 5.411380 -3.310920 12.994500 -0.242716 -4.980390 91.725400 -4.592360 -69.381400 -5.348130 -0.000001 -0.000004 -67.585500 23.831100 45.346700 -24.328900 0.000322 -0.000009 -10.767000 -4.494020 -67.601900 -22.291500 -0.000108 -0.000004 5.668390 5.586450 -10.562200 -2.192480 -6.469440 -0.000000 -162.273000 -18.249600 12.751600 39.081100 -0.000007 -0.000012 0.148329 -0.352878 22.799200 40.985400 -0.000006 -0.000013 -5.051700 7.485060 -25.770700 11.754300 -0.000000 0.000003 -0.001890 -0.027332 -17.688200 -2.192510 6.469440 -0.000001 -175.907000 10.320400 132.337000 -39.081100 -0.002282 -0.040193 0.089049 -0.069796 50.874000 -40.985400 0.000008 0.000006 4.794230 2.632210 -60.045200 -11.754300 -0.000006 -0.000006 -0.013325 -0.127001 -21.752300
0.000000 0.000000 0.000000 0.000000 0.000000 -0.000000 1.744680 97.274100 71.878300 92.167800 13.759100 -11.522700 15.735700 0.000005 -0.000001 32.586100 79.861400 -30.726000 8.984550 -0.406207 -0.000000 3.574740 -17.133800 4.276320 16.377300 -0.000001 -0.000001 -1.896090 -2.449820 1.120710 6.456720 -0.000001 -0.000000 -3.169580 6.567490 0.941575 12.994200 -0.242716 4.980390 -88.079400 -7.932070 -76.342200 5.348090 -0.000007 -0.000001 -60.610300 21.937800 -34.021500 24.328600 0.000019 0.000005 6.330890 -4.197300 -123.413000 22.291600 -0.000001 0.000005 -2.857110 5.406290 -3.143120 12.994500 -0.242716 -4.980390 91.564400 -3.920990 -68.227200 -5.348130 -0.000001 -0.000004 -67.976200 23.402400 44.755500 -24.328900 0.000322 -0.000009 -10.875300 -4.026410 -69.921600 -22.291500 -0.000108 -0.000004 6.738650 5.594450 -11.008700 -2.192480 -6.469440 -0.000000 -163.752000 -10.845900 14.780900 39.081100 -0.000007 -0.000012 0.247435 -0.385166 32.717400 40.985400 -0.000006 -0.000013 -2.153060 0.713279 -24.786000 11.754300 -0.000000 0.000003 -0.001319 -0.019839 -17.383500 -2.192510 6.469440 -0.000001 -178.156000 15.109400 141.353000 -39.081100 -0.002282 -0.040193 -0.010217 0.029229 24.838200 -40.985400 0.000008 0.000006 -1.667190 12.125400 -63.232700 -11.754300 -0.000006 -0.000006 -0.015063 -0.138215 -22.212300
